# xmcd
# 
# Track frame offsets:
#     150
#     2642
#     22772
#     37722
#     54727
#     55915
#     74327
#     98057
#     99535
#     114940
#     118430
#     136550
#     142272
#     158715
#     174772
#     192965
#     195560
#     215460
#     231357
#     250337
# 
# Disc length: 3590
# 
# Revision: 83
# Processed by: cddbd v1.5.2PL0 Copyright (c) Steve Scherf et al.
# Submitted via: fre:ac v1.0.17
# 
DISCID=0c0e0414
DTITLE=Eminem - The Slim Shady LP
DYEAR=1999
DGENRE=Rap
TTITLE0=Public Service Announcement
TTITLE1=My Name Is
TTITLE2=Guilty Conscience
TTITLE3=Brain Damage
TTITLE4=Paul
TTITLE5=If I Had
TTITLE6=97´ Bonnie and Clyde
TTITLE7=Bitch
TTITLE8=Role Model
TTITLE9=Lounge
TTITLE10=My Fault
TTITLE11=Ken Kaniff
TTITLE12=Cum On Everybody
TTITLE13=Rock Bottom
TTITLE14=Just Don't Give A Fuck
TTITLE15=Soap
TTITLE16=As The World Turns
TTITLE17=I'm Shady
TTITLE18=Bad Meets Evil
TTITLE19=Still Don't Give a Fuck
EXTD=YEAR: 1999
EXTT0=0c0e0414
EXTT1=
EXTT2=
EXTT3=
EXTT4=
EXTT5=
EXTT6=
EXTT7=
EXTT8=
EXTT9=
EXTT10=
EXTT11=
EXTT12=
EXTT13=
EXTT14=
EXTT15=
EXTT16=
EXTT17=
EXTT18=
EXTT19=
PLAYORDER=
